<svg width="457" height="98" viewBox="0 0 457 98" fill="none" xmlns="http://www.w3.org/2000/svg">
  <g mask="url(#text-mask)">
<path d="M431.947 75.0027C431.627 74.8107 431.211 74.7147 430.699 74.7147C430.251 74.7147 429.771 74.7147 429.259 74.7147C429.003 74.6507 428.267 74.6187 427.051 74.6187C425.899 74.6187 424.715 74.6187 423.499 74.6187C422.347 74.6187 421.611 74.6187 421.291 74.6187C420.075 74.6187 419.403 73.9467 419.275 72.6027V31.5147C421.771 31.5147 424.523 31.5147 427.531 31.5147C430.603 31.4507 433.739 31.4187 436.939 31.4187C440.139 31.4187 443.179 31.4507 446.059 31.5147C449.003 31.5147 451.563 31.5147 453.739 31.5147C454.059 31.5147 454.347 31.5787 454.603 31.7067C454.923 31.8347 455.083 32.0587 455.083 32.3787V72.4107C455.083 72.6667 455.051 72.9547 454.987 73.2747C454.987 73.5307 454.923 73.7227 454.795 73.8507C454.347 74.1067 453.899 74.3627 453.451 74.6187C453.067 74.8107 452.651 74.9067 452.203 74.9067C451.115 74.9067 450.123 74.9707 449.227 75.0987C448.331 75.2267 447.435 74.9707 446.539 74.3307C446.091 74.9707 445.675 75.0987 445.291 74.7147C444.907 74.3947 444.491 74.2987 444.043 74.4267C443.851 74.4907 443.307 74.5547 442.411 74.6187C441.579 74.6187 440.587 74.6187 439.435 74.6187C438.347 74.6827 437.323 74.6827 436.363 74.6187C435.467 74.6187 434.827 74.6187 434.443 74.6187C433.995 74.5547 433.579 74.6827 433.195 75.0027C432.875 75.3227 432.459 75.3227 431.947 75.0027ZM439.339 72.2187C439.851 72.2187 440.779 72.1867 442.123 72.1227C443.467 71.9947 445.003 71.8987 446.731 71.8347C448.523 71.7067 450.219 71.6427 451.819 71.6427C451.947 71.3867 452.011 70.7147 452.011 69.6267C452.011 68.5387 451.979 67.4187 451.915 66.2667C451.851 65.1147 451.819 64.4107 451.819 64.1547V51.9627C452.011 49.4027 452.139 47.5147 452.203 46.2987C452.267 45.0187 452.267 43.9947 452.203 43.2267C452.203 42.3947 452.171 41.4027 452.107 40.2507C452.043 39.0347 452.011 37.2427 452.011 34.8747C451.819 34.8747 451.243 34.8427 450.283 34.7787C449.387 34.6507 448.587 34.5547 447.883 34.4907C447.691 34.4907 446.891 34.4907 445.483 34.4907C444.139 34.4907 442.571 34.5227 440.779 34.5867C439.051 34.6507 437.483 34.7147 436.075 34.7787C434.731 34.7787 433.931 34.7787 433.675 34.7787C433.291 34.2027 432.907 34.1067 432.523 34.4907C432.139 34.8107 431.595 34.9067 430.891 34.7787C430.443 34.2667 429.995 34.0427 429.547 34.1067C429.099 34.1067 428.619 34.1067 428.107 34.1067C427.403 34.1067 426.411 34.1387 425.131 34.2027C423.851 34.2667 422.859 34.3627 422.155 34.4907C421.899 35.1307 421.739 35.7387 421.675 36.3147C421.611 36.8267 421.771 37.3067 422.155 37.7547C422.283 37.8187 422.379 37.9787 422.443 38.2347C422.507 38.4907 422.475 38.6507 422.347 38.7147V44.6667C422.539 44.9867 422.571 45.2427 422.443 45.4347C421.803 46.0747 421.739 46.8747 422.251 47.8347C422.379 48.0907 422.475 48.3787 422.539 48.6987C422.603 49.0187 422.635 49.3387 422.635 49.6587C422.635 50.3627 422.411 51.0347 421.963 51.6747C421.643 52.1227 421.611 52.4747 421.867 52.7307C422.251 53.2427 422.443 53.9787 422.443 54.9387C422.443 55.6427 422.443 56.7947 422.443 58.3947C422.443 59.9307 422.411 61.4667 422.347 63.0027C422.347 64.5387 422.347 65.6587 422.347 66.3627C422.347 66.8107 422.315 67.2907 422.251 67.8027C422.251 68.3147 422.187 69.2427 422.059 70.5867C422.059 71.3547 422.283 71.7387 422.731 71.7387C423.499 71.7387 424.619 71.7387 426.091 71.7387C427.563 71.7387 428.971 71.7707 430.315 71.8347C431.659 71.8347 432.427 71.9307 432.619 72.1227C432.875 72.3147 433.131 72.2827 433.387 72.0267C433.707 71.7067 433.995 71.6107 434.251 71.7387C434.507 71.8667 434.763 71.9947 435.019 72.1227C435.275 72.1867 435.563 72.1227 435.883 71.9307C436.267 71.6747 436.523 71.6107 436.651 71.7387C437.099 72.0587 437.547 72.2187 437.995 72.2187C438.443 72.2187 438.891 72.2187 439.339 72.2187ZM438.571 56.0907C437.931 56.7307 437.131 56.7947 436.171 56.2827C435.275 55.7707 434.603 55.2267 434.155 54.6507C433.771 54.1387 433.579 53.6267 433.579 53.1147C433.579 52.6027 433.739 52.0587 434.059 51.4827C434.443 50.8427 434.859 50.4907 435.307 50.4267C436.011 50.2987 436.843 50.2987 437.803 50.4267C438.827 50.4907 439.339 51.0027 439.339 51.9627C439.339 52.6667 439.563 53.1787 440.011 53.4987C440.459 53.8187 440.427 54.2347 439.915 54.7467L438.571 56.0907ZM437.323 54.1707L437.707 53.7867C437.835 53.6587 437.835 53.5627 437.707 53.4987C437.579 53.4347 437.515 53.2747 437.515 53.0187C437.515 52.7627 437.387 52.6347 437.131 52.6347C436.875 52.5707 436.651 52.5707 436.459 52.6347C436.139 52.7627 435.979 53.0187 435.979 53.4027C435.979 53.5947 436.043 53.7227 436.171 53.7867C436.299 53.9147 436.459 54.0747 436.651 54.2667C436.907 54.3947 437.131 54.3627 437.323 54.1707Z" fill="#E6DDB8"/>
<path d="M405.882 74.7147C404.858 74.5867 404.122 74.5227 403.674 74.5227C403.29 74.5227 402.906 74.5227 402.522 74.5227H396.09L386.97 74.6187C385.946 74.6187 385.21 74.4907 384.762 74.2347C384.378 73.9787 384.154 73.6907 384.09 73.3707C384.026 72.9867 384.09 72.6347 384.282 72.3147C384.538 71.9307 384.698 71.7067 384.762 71.6427C385.21 71.5147 386.458 71.5147 388.506 71.6427C390.618 71.7707 393.114 71.7707 395.994 71.6427C396.186 71.6427 396.346 71.6107 396.474 71.5467C396.666 71.4827 396.634 71.2907 396.378 70.9707C396.186 70.6507 396.122 70.2347 396.186 69.7227C396.314 69.1467 396.378 68.6667 396.378 68.2827C396.378 67.8347 396.314 67.3867 396.186 66.9387C396.058 66.4907 396.058 66.0427 396.186 65.5947C396.314 65.1467 396.442 64.7627 396.57 64.4427C396.762 64.0587 396.858 63.6427 396.858 63.1947V36.9867C396.858 36.4747 396.794 35.9627 396.666 35.4507C396.538 34.8747 396.314 34.5547 395.994 34.4907C395.29 34.2347 394.298 34.1067 393.018 34.1067C391.994 34.1067 390.938 34.1707 389.85 34.2987C388.762 34.3627 387.802 34.3947 386.97 34.3947C386.714 34.3947 386.33 34.3947 385.818 34.3947C385.306 34.3947 384.89 34.3307 384.57 34.2027C384.314 34.0747 384.026 33.8507 383.706 33.5307C383.45 33.2107 383.354 32.9867 383.418 32.8587C383.738 31.8987 384.378 31.4187 385.338 31.4187H412.698C413.274 31.5467 413.562 32.0907 413.562 33.0507C413.562 33.4987 413.05 33.9147 412.026 34.2987C411.002 34.6827 409.946 34.8747 408.858 34.8747C408.538 34.8747 408.218 34.8427 407.898 34.7787C407.642 34.6507 407.386 34.5547 407.13 34.4907C406.618 34.9387 406.074 35.1627 405.498 35.1627L402.138 34.4907C401.37 34.4907 400.794 34.8107 400.41 35.4507C400.026 36.0267 399.834 36.6987 399.834 37.4667V39.0987C399.706 39.9947 399.578 40.8907 399.45 41.7867C399.322 42.6187 399.29 43.5787 399.354 44.6667C399.482 45.1787 399.578 45.7547 399.642 46.3947C399.77 46.9707 399.93 47.5787 400.122 48.2187C400.122 48.9867 400.058 49.7867 399.93 50.6187C399.802 51.3867 399.866 52.2507 400.122 53.2107C400.25 53.5947 400.218 54.0107 400.026 54.4587C399.898 54.8427 399.834 55.0347 399.834 55.0347C399.578 55.4827 399.578 55.8987 399.834 56.2827C400.09 56.6667 400.186 57.1147 400.122 57.6267C400.058 58.0747 399.962 58.5547 399.834 59.0667C399.77 59.5787 399.834 59.9627 400.026 60.2187C400.346 60.6667 400.41 61.1787 400.218 61.7547C400.026 62.2667 399.93 63.0987 399.93 64.2507C399.93 64.2507 399.898 65.0187 399.834 66.5547C399.77 68.0267 399.738 69.5947 399.738 71.2587C399.738 71.2587 399.898 71.3227 400.218 71.4507C400.538 71.5787 401.178 71.6427 402.138 71.6427H412.698C412.954 71.6427 413.178 71.8347 413.37 72.2187C413.562 72.5387 413.626 72.8907 413.562 73.2747C413.562 73.5307 413.21 73.7547 412.506 73.9467C411.802 74.1387 410.97 74.2987 410.01 74.4267C409.05 74.5547 408.154 74.6187 407.322 74.6187C406.554 74.6827 406.074 74.7147 405.882 74.7147ZM398.49 28.3467C397.594 28.3467 396.762 28.1547 395.994 27.7707C395.29 27.3867 394.842 26.9387 394.65 26.4267C394.522 26.0427 394.522 25.4027 394.65 24.5067C394.778 23.5467 395.29 22.8427 396.186 22.3947C396.762 21.9467 397.37 21.6267 398.01 21.4347C398.65 21.1787 399.194 21.2107 399.642 21.5307C399.962 21.7867 400.346 22.0427 400.794 22.2987C401.242 22.4907 401.658 22.6827 402.042 22.8747C402.81 23.4507 403.002 24.0907 402.618 24.7947C402.17 25.6267 401.658 26.4267 401.082 27.1947C400.57 27.9627 399.706 28.3467 398.49 28.3467Z" fill="#E6DDB8"/>
<path d="M353.826 74.6187C353.058 74.6187 352.578 74.5227 352.386 74.3307C352.194 74.1387 351.906 73.7227 351.522 73.0827C351.266 72.5707 351.49 72.1867 352.194 71.9307C352.962 71.6107 353.634 71.4507 354.21 71.4507H362.178C362.69 71.3867 363.01 71.2907 363.138 71.1627C363.33 71.0347 363.426 70.7467 363.426 70.2987V49.6587L363.906 47.2587L363.426 44.2827L363.81 42.4587L363.426 34.2987C362.658 34.2987 362.114 34.3307 361.794 34.3947C361.538 34.4587 361.218 34.5547 360.834 34.6827C360.45 34.7467 359.65 34.7787 358.434 34.7787C357.922 34.7787 357.41 34.8747 356.898 35.0667L353.73 34.2987C353.474 33.7867 353.57 33.1787 354.018 32.4747C354.53 31.7707 355.106 31.4187 355.746 31.4187H363.426C363.426 30.3307 363.394 29.4027 363.33 28.6347C363.266 27.8027 363.074 27.2267 362.754 26.9067C363.074 26.5227 363.266 25.5307 363.33 23.9307C363.458 22.3307 363.522 20.5387 363.522 18.5547C363.586 16.5707 363.586 14.7787 363.522 13.1787C363.522 11.5147 363.522 10.4587 363.522 10.0107C363.522 9.5627 363.682 9.1787 364.002 8.8587C364.386 8.4747 364.802 8.2507 365.25 8.1867C365.698 8.1227 365.986 8.0907 366.114 8.0907C366.242 8.0907 366.498 7.9307 366.882 7.6107C366.946 7.5467 367.234 7.5147 367.746 7.5147C368.258 7.4507 369.218 7.4187 370.626 7.4187C372.098 7.4187 374.21 7.4187 376.962 7.4187C377.666 7.4187 378.114 7.4827 378.306 7.6107C378.498 7.7387 378.786 8.2187 379.17 9.0507C379.426 9.4987 379.138 9.9147 378.306 10.2987C377.474 10.6827 376.546 10.8427 375.522 10.7787C375.074 10.7787 374.754 10.8107 374.562 10.8747C374.434 10.8747 374.178 10.8747 373.794 10.8747C373.474 10.8747 372.834 10.8747 371.874 10.8747C370.978 10.8747 369.538 10.8747 367.554 10.8747C366.786 10.8747 366.434 11.0987 366.498 11.5467C366.626 11.9947 366.69 12.3467 366.69 12.6027V31.4187H378.402C378.85 31.4187 379.266 31.6427 379.65 32.0907C380.098 32.5387 380.258 32.9547 380.13 33.3387C380.066 33.6587 379.842 33.9787 379.458 34.2987C379.074 34.6187 378.722 34.7787 378.402 34.7787C377.826 34.8427 377.122 34.8747 376.29 34.8747C375.522 34.8747 374.914 34.7147 374.466 34.3947C373.762 33.8187 373.154 33.5947 372.642 33.7227C372.13 33.8507 371.65 34.0747 371.202 34.3947C370.818 34.7147 370.338 34.8747 369.762 34.8747C369.314 34.8107 368.866 34.7467 368.418 34.6827C367.97 34.6187 367.554 34.5547 367.17 34.4907C366.786 34.4267 366.562 34.6187 366.498 35.0667C366.434 35.3227 366.402 35.7387 366.402 36.3147C366.402 36.8267 366.402 37.4987 366.402 38.3307C366.402 38.5867 366.306 38.7787 366.114 38.9067C365.986 38.9707 366.082 39.2587 366.402 39.7707C366.53 39.9627 366.466 40.1867 366.21 40.4427C366.018 40.6347 366.05 41.0187 366.306 41.5947C366.434 41.8507 366.434 42.2027 366.306 42.6507C366.242 43.0347 366.178 43.4507 366.114 43.8987C365.986 45.4347 366.018 46.7467 366.21 47.8347C366.402 48.8587 366.434 50.4267 366.306 52.5387C366.242 53.1787 366.178 53.8507 366.114 54.5547C366.05 55.1947 366.178 55.8667 366.498 56.5707C366.498 56.5707 366.37 56.8267 366.114 57.3387C365.922 57.7867 365.954 58.2667 366.21 58.7787C366.594 59.6107 366.594 60.4747 366.21 61.3707C365.954 61.8187 366.018 62.3627 366.402 63.0027C366.85 63.5787 366.946 64.1227 366.69 64.6347C366.498 65.0827 366.434 65.4987 366.498 65.8827C366.626 66.2667 366.594 66.6507 366.402 67.0347C366.146 67.5467 366.146 68.1227 366.402 68.7627C366.658 69.4027 366.754 70.0107 366.69 70.5867C366.754 70.7147 366.85 70.8747 366.978 71.0667C367.17 71.2587 367.33 71.3547 367.458 71.3547C369.186 71.3547 370.306 71.3547 370.818 71.3547C371.33 71.3547 371.682 71.3547 371.874 71.3547C372.066 71.3547 372.482 71.3547 373.122 71.3547C373.762 71.3547 375.042 71.3547 376.962 71.3547C377.474 71.3547 378.21 71.5787 379.17 72.0267C380.194 72.4107 380.642 72.7627 380.514 73.0827L379.362 74.5227C377.378 74.5227 375.874 74.5547 374.85 74.6187C373.826 74.6187 372.898 74.6187 372.066 74.6187C371.234 74.6187 370.178 74.6187 368.898 74.6187C367.682 74.6187 365.89 74.6187 363.522 74.6187C361.218 74.6187 357.986 74.6187 353.826 74.6187Z" fill="#E6DDB8"/>
<path d="M323.478 75.0027C323.158 74.8107 322.742 74.7147 322.23 74.7147C321.782 74.7147 321.302 74.7147 320.79 74.7147C320.534 74.6507 319.798 74.6187 318.582 74.6187C317.43 74.6187 316.246 74.6187 315.03 74.6187C313.878 74.6187 313.142 74.6187 312.822 74.6187C311.606 74.6187 310.934 73.9467 310.806 72.6027V31.5147C313.302 31.5147 316.054 31.5147 319.062 31.5147C322.134 31.4507 325.27 31.4187 328.47 31.4187C331.67 31.4187 334.71 31.4507 337.59 31.5147C340.534 31.5147 343.094 31.5147 345.27 31.5147C345.59 31.5147 345.878 31.5787 346.134 31.7067C346.454 31.8347 346.614 32.0587 346.614 32.3787V72.4107C346.614 72.6667 346.582 72.9547 346.518 73.2747C346.518 73.5307 346.454 73.7227 346.326 73.8507C345.878 74.1067 345.43 74.3627 344.982 74.6187C344.598 74.8107 344.182 74.9067 343.734 74.9067C342.646 74.9067 341.654 74.9707 340.758 75.0987C339.862 75.2267 338.966 74.9707 338.07 74.3307C337.622 74.9707 337.206 75.0987 336.822 74.7147C336.438 74.3947 336.022 74.2987 335.574 74.4267C335.382 74.4907 334.838 74.5547 333.942 74.6187C333.11 74.6187 332.118 74.6187 330.966 74.6187C329.878 74.6827 328.854 74.6827 327.894 74.6187C326.998 74.6187 326.358 74.6187 325.974 74.6187C325.526 74.5547 325.11 74.6827 324.726 75.0027C324.406 75.3227 323.99 75.3227 323.478 75.0027ZM330.87 72.2187C331.382 72.2187 332.31 72.1867 333.654 72.1227C334.998 71.9947 336.534 71.8987 338.262 71.8347C340.054 71.7067 341.75 71.6427 343.35 71.6427C343.478 71.3867 343.542 70.7147 343.542 69.6267C343.542 68.5387 343.51 67.4187 343.446 66.2667C343.382 65.1147 343.35 64.4107 343.35 64.1547V51.9627C343.542 49.4027 343.67 47.5147 343.734 46.2987C343.798 45.0187 343.798 43.9947 343.734 43.2267C343.734 42.3947 343.702 41.4027 343.638 40.2507C343.574 39.0347 343.542 37.2427 343.542 34.8747C343.35 34.8747 342.774 34.8427 341.814 34.7787C340.918 34.6507 340.118 34.5547 339.414 34.4907C339.222 34.4907 338.422 34.4907 337.014 34.4907C335.67 34.4907 334.102 34.5227 332.31 34.5867C330.582 34.6507 329.014 34.7147 327.606 34.7787C326.262 34.7787 325.462 34.7787 325.206 34.7787C324.822 34.2027 324.438 34.1067 324.054 34.4907C323.67 34.8107 323.126 34.9067 322.422 34.7787C321.974 34.2667 321.526 34.0427 321.078 34.1067C320.63 34.1067 320.15 34.1067 319.638 34.1067C318.934 34.1067 317.942 34.1387 316.662 34.2027C315.382 34.2667 314.39 34.3627 313.686 34.4907C313.43 35.1307 313.27 35.7387 313.206 36.3147C313.142 36.8267 313.302 37.3067 313.686 37.7547C313.814 37.8187 313.91 37.9787 313.974 38.2347C314.038 38.4907 314.006 38.6507 313.878 38.7147V44.6667C314.07 44.9867 314.102 45.2427 313.974 45.4347C313.334 46.0747 313.27 46.8747 313.782 47.8347C313.91 48.0907 314.006 48.3787 314.07 48.6987C314.134 49.0187 314.166 49.3387 314.166 49.6587C314.166 50.3627 313.942 51.0347 313.494 51.6747C313.174 52.1227 313.142 52.4747 313.398 52.7307C313.782 53.2427 313.974 53.9787 313.974 54.9387C313.974 55.6427 313.974 56.7947 313.974 58.3947C313.974 59.9307 313.942 61.4667 313.878 63.0027C313.878 64.5387 313.878 65.6587 313.878 66.3627C313.878 66.8107 313.846 67.2907 313.782 67.8027C313.782 68.3147 313.718 69.2427 313.59 70.5867C313.59 71.3547 313.814 71.7387 314.262 71.7387C315.03 71.7387 316.15 71.7387 317.622 71.7387C319.094 71.7387 320.502 71.7707 321.846 71.8347C323.19 71.8347 323.958 71.9307 324.15 72.1227C324.406 72.3147 324.662 72.2827 324.918 72.0267C325.238 71.7067 325.526 71.6107 325.782 71.7387C326.038 71.8667 326.294 71.9947 326.55 72.1227C326.806 72.1867 327.094 72.1227 327.414 71.9307C327.798 71.6747 328.054 71.6107 328.182 71.7387C328.63 72.0587 329.078 72.2187 329.526 72.2187C329.974 72.2187 330.422 72.2187 330.87 72.2187ZM330.102 56.0907C329.462 56.7307 328.662 56.7947 327.702 56.2827C326.806 55.7707 326.134 55.2267 325.686 54.6507C325.302 54.1387 325.11 53.6267 325.11 53.1147C325.11 52.6027 325.27 52.0587 325.59 51.4827C325.974 50.8427 326.39 50.4907 326.838 50.4267C327.542 50.2987 328.374 50.2987 329.334 50.4267C330.358 50.4907 330.87 51.0027 330.87 51.9627C330.87 52.6667 331.094 53.1787 331.542 53.4987C331.99 53.8187 331.958 54.2347 331.446 54.7467L330.102 56.0907ZM328.854 54.1707L329.238 53.7867C329.366 53.6587 329.366 53.5627 329.238 53.4987C329.11 53.4347 329.046 53.2747 329.046 53.0187C329.046 52.7627 328.918 52.6347 328.662 52.6347C328.406 52.5707 328.182 52.5707 327.99 52.6347C327.67 52.7627 327.51 53.0187 327.51 53.4027C327.51 53.5947 327.574 53.7227 327.702 53.7867C327.83 53.9147 327.99 54.0747 328.182 54.2667C328.438 54.3947 328.662 54.3627 328.854 54.1707Z" fill="#E6DDB8"/>
<path d="M271.518 74.8107C271.39 74.6827 270.91 74.6187 270.078 74.6187C269.31 74.6187 268.478 74.6187 267.582 74.6187C266.75 74.5547 266.11 74.5227 265.662 74.5227C265.086 74.5227 264.606 74.0747 264.222 73.1787C263.902 72.2187 263.774 71.5147 263.838 71.0667C263.902 69.4667 263.902 67.3867 263.838 64.8267C263.838 62.2027 263.838 59.6107 263.838 57.0507C263.838 54.4907 263.838 52.4107 263.838 50.8107C263.838 50.2987 263.998 49.6587 264.318 48.8907C264.382 48.7627 264.414 48.1547 264.414 47.0667C264.478 45.9787 264.51 44.6987 264.51 43.2267C264.574 41.7547 264.606 40.4107 264.606 39.1947C264.606 37.9787 264.606 37.1787 264.606 36.7947C264.606 36.5387 264.542 36.3147 264.414 36.1227C264.35 35.8667 264.254 35.6107 264.126 35.3547C263.742 34.7147 263.742 34.1067 264.126 33.5307C264.382 32.9547 264.382 32.5067 264.126 32.1867C264.062 32.0587 264.126 31.8667 264.318 31.6107C264.51 31.3547 264.606 31.0987 264.606 30.8427C264.67 29.7547 264.67 28.2827 264.606 26.4267C264.606 24.5707 264.606 23.0987 264.606 22.0107C264.414 21.6267 264.254 21.1147 264.126 20.4747C264.062 19.7707 264.062 18.6827 264.126 17.2107C264.19 15.6747 264.318 13.4987 264.51 10.6827C264.51 10.4267 264.382 10.2347 264.126 10.1067C263.614 9.3387 263.806 8.7307 264.702 8.2827C265.598 7.7707 266.462 7.3547 267.294 7.0347C267.742 6.9067 268.094 6.9707 268.35 7.2267C268.862 7.5467 269.31 7.5467 269.694 7.2267C274.558 7.16271 278.942 7.13071 282.846 7.13071C286.814 7.13071 289.982 7.16271 292.35 7.2267C294.782 7.2907 296.094 7.3867 296.286 7.5147C296.542 7.7067 296.99 7.8027 297.63 7.8027C298.334 7.7387 299.582 7.7387 301.374 7.8027C302.014 7.8027 302.334 8.1227 302.334 8.7627V24.5067C302.334 25.1467 302.014 25.4667 301.374 25.4667C300.414 25.5307 299.934 25.2427 299.934 24.6027C299.934 24.1547 299.806 23.7707 299.55 23.4507C299.358 23.1307 299.23 22.7787 299.166 22.3947C299.166 22.2027 299.134 21.8507 299.07 21.3387C299.07 20.7627 299.07 19.7067 299.07 18.1707C299.07 16.6347 299.07 14.2987 299.07 11.1627C299.07 10.5227 298.75 10.2027 298.11 10.2027H269.31C267.838 10.2027 267.102 10.8747 267.102 12.2187C267.038 14.2027 267.07 15.6427 267.198 16.5387C267.326 17.3707 267.518 17.9787 267.774 18.3627C267.774 18.8107 267.646 19.1947 267.39 19.5147C267.198 19.8347 267.102 20.4427 267.102 21.3387C267.422 21.7227 267.646 22.1387 267.774 22.5867C267.902 23.0347 267.966 23.5147 267.966 24.0267V41.6907C267.966 42.5867 267.71 43.3867 267.198 44.0907C267.07 44.2827 267.006 44.5387 267.006 44.8587C267.07 45.1147 267.102 45.3707 267.102 45.6267V71.5467C267.102 71.8027 267.23 72.0267 267.486 72.2187C267.742 72.3467 267.998 72.3467 268.254 72.2187C269.022 71.6427 269.79 71.4187 270.558 71.5467C271.39 71.6107 272.222 71.7067 273.054 71.8347C273.502 71.9627 273.886 71.9947 274.206 71.9307C274.59 71.8027 274.974 71.7067 275.358 71.6427C275.742 71.5787 276.158 71.6747 276.606 71.9307C276.734 71.9947 277.598 72.0587 279.198 72.1227C280.798 72.1227 282.718 72.1227 284.958 72.1227C287.262 72.0587 289.534 72.0267 291.774 72.0267C294.078 71.9627 296.03 71.8987 297.63 71.8347C299.23 71.7707 300.126 71.7387 300.318 71.7387L300.222 64.8267C299.902 64.3787 299.294 63.7707 298.398 63.0027C297.502 62.1707 296.606 61.3707 295.71 60.6027C294.878 59.7707 294.27 59.2267 293.886 58.9707C292.35 57.7547 290.974 56.5707 289.758 55.4187C288.542 54.2667 287.262 52.9867 285.918 51.5787C285.47 51.1307 285.246 50.1707 285.246 48.6987C285.374 48.3147 285.598 48.0587 285.918 47.9307C286.814 47.8027 287.454 47.7707 287.838 47.8347C288.286 47.8987 288.926 47.9307 289.758 47.9307C290.462 47.9307 291.07 47.6747 291.582 47.1627C293.246 47.3547 294.398 47.4827 295.038 47.5467C295.742 47.6107 296.254 47.6747 296.574 47.7387C296.958 47.7387 297.47 47.7387 298.11 47.7387C298.814 47.7387 299.998 47.8027 301.662 47.9307C302.366 47.9307 302.782 48.1867 302.91 48.6987C303.038 49.2107 303.102 49.6267 303.102 49.9467C302.974 54.8107 302.91 58.8107 302.91 61.9467C302.91 65.0187 302.942 67.4507 303.006 69.2427C303.07 70.9707 303.07 72.2187 303.006 72.9867C303.006 73.7547 302.878 74.2667 302.622 74.5227C302.558 74.5867 302.174 74.6507 301.47 74.7147C300.766 74.7787 300.062 74.8107 299.358 74.8107C298.654 74.8107 298.238 74.7787 298.11 74.7147C297.726 74.3307 297.278 74.2347 296.766 74.4267C296.254 74.5547 295.774 74.6187 295.326 74.6187L274.59 74.7147H273.534C273.214 74.7147 272.862 74.7787 272.478 74.9067C272.158 75.0987 271.838 75.0667 271.518 74.8107ZM282.846 36.2187C281.694 36.2187 280.894 35.8347 280.446 35.0667C279.998 34.2347 279.774 33.5947 279.774 33.1467C279.774 32.3787 280.094 31.7387 280.734 31.2267C281.438 30.6507 282.398 30.3627 283.614 30.3627C284.254 30.2347 284.766 30.2987 285.15 30.5547C285.598 30.8107 286.014 31.1947 286.398 31.7067C286.91 32.4107 286.91 33.1467 286.398 33.9147C285.95 34.3627 285.406 34.8747 284.766 35.4507C284.19 35.9627 283.55 36.2187 282.846 36.2187ZM283.134 34.0107C283.582 34.0107 283.902 33.7867 284.094 33.3387C284.222 33.2107 284.222 33.0187 284.094 32.7627C283.838 32.5067 283.614 32.4107 283.422 32.4747C282.782 32.4747 282.462 32.6987 282.462 33.1467C282.462 33.2107 282.494 33.3707 282.558 33.6267C282.686 33.8827 282.878 34.0107 283.134 34.0107ZM300.03 61.4667C300.158 61.5947 300.222 61.4027 300.222 60.8907C300.286 60.3147 300.318 59.3227 300.318 57.9147C300.318 56.2507 300.286 54.6827 300.222 53.2107C300.222 51.7387 300.158 50.9707 300.03 50.9067C299.774 50.5867 299.262 50.4587 298.494 50.5227C297.79 50.5227 296.158 50.3947 293.598 50.1387C293.342 49.8187 292.798 49.7547 291.966 49.9467C291.134 50.0747 290.526 50.2027 290.142 50.3307L288.51 50.5227C288.638 50.9067 289.246 51.6427 290.334 52.7307C291.486 53.7547 292.766 54.9067 294.174 56.1867C295.582 57.4027 296.83 58.5227 297.918 59.5467C299.07 60.5067 299.774 61.1467 300.03 61.4667Z" fill="#E6DDB8"/>
<path d="M210.909 93.9147C210.333 93.9147 210.045 93.5947 210.045 92.9547C210.045 92.5067 210.173 92.0907 210.429 91.7067C210.685 91.3227 210.909 90.9067 211.101 90.4587C211.229 90.3307 211.293 89.9787 211.293 89.4027C211.293 88.8907 211.293 88.6027 211.293 88.5387C211.293 88.2187 211.357 87.9307 211.485 87.6747C211.613 87.4187 211.773 87.1307 211.965 86.8107C212.157 86.6187 212.445 86.1387 212.829 85.3707C213.213 84.6667 213.565 83.9307 213.885 83.1627C214.205 82.3947 214.397 81.9147 214.461 81.7227C214.525 81.0187 214.877 80.3147 215.517 79.6107C216.221 78.9067 216.541 78.2987 216.477 77.7867L217.149 75.7707C216.893 75.2587 216.637 74.7467 216.381 74.2347C216.189 73.7227 215.997 73.2747 215.805 72.8907C214.781 71.2267 214.013 69.7227 213.501 68.3787C212.989 66.9707 212.093 65.4987 210.813 63.9627C210.749 63.1307 210.493 62.1067 210.045 60.8907C209.661 59.6107 209.213 58.3627 208.701 57.1467C208.253 55.9307 207.869 54.9707 207.549 54.2667C207.037 53.1787 206.461 52.1227 205.821 51.0987C205.245 50.0107 204.797 48.9227 204.477 47.8347C204.221 46.8747 203.773 45.7227 203.133 44.3787C202.557 42.9707 201.949 41.5947 201.309 40.2507C200.669 38.8427 200.125 37.6267 199.677 36.6027C199.229 35.5787 199.005 34.9387 199.005 34.6827C199.005 33.9147 198.877 33.3067 198.621 32.8587C198.429 32.3467 198.333 31.9947 198.333 31.8027C198.333 31.4827 198.589 31.2907 199.101 31.2267C199.613 31.1627 200.669 31.1307 202.269 31.1307C204.573 31.1947 207.517 31.2587 211.101 31.3227C214.749 31.3867 218.589 31.4187 222.621 31.4187C224.861 31.4187 227.101 31.4187 229.341 31.4187C231.645 31.3547 233.885 31.2587 236.061 31.1307C236.957 31.1307 237.693 31.1947 238.269 31.3227C238.909 31.4507 239.293 31.6747 239.421 31.9947C239.677 32.4427 239.805 32.9547 239.805 33.5307C239.805 34.3627 239.581 35.1947 239.133 36.0267C238.685 36.8587 238.237 37.7227 237.789 38.6187C237.341 39.4507 237.117 40.3147 237.117 41.2107C237.117 41.5307 236.989 41.7547 236.733 41.8827C236.093 42.5227 235.581 43.2267 235.197 43.9947C234.877 44.7627 234.557 45.5307 234.237 46.2987C233.725 47.5147 233.021 49.0827 232.125 51.0027C231.229 52.8587 230.301 54.8427 229.341 56.9547C228.381 59.0667 227.485 61.0827 226.653 63.0027C225.885 64.8587 225.309 66.3947 224.925 67.6107C224.605 68.5707 224.029 69.8187 223.197 71.3547C222.429 72.8267 221.693 74.1387 220.989 75.2907C220.349 76.5067 220.029 77.1147 220.029 77.1147C219.645 77.8827 219.133 78.9387 218.493 80.2827C217.853 81.6907 217.373 82.6827 217.053 83.2587C216.669 83.9627 216.317 84.7947 215.997 85.7547C215.677 86.7787 215.069 88.0267 214.173 89.4987C213.597 91.2907 213.021 92.4747 212.445 93.0507C211.933 93.6267 211.421 93.9147 210.909 93.9147ZM218.877 72.5067C219.133 72.1227 219.613 71.1627 220.317 69.6267C221.021 68.0907 221.821 66.2667 222.717 64.1547C223.677 62.0427 224.605 59.8987 225.501 57.7227C226.461 55.5467 227.325 53.6267 228.093 51.9627C228.861 50.2347 229.437 49.0507 229.821 48.4107C230.845 46.8107 231.741 45.1787 232.509 43.5147C233.277 41.7867 234.141 40.1227 235.101 38.5227C235.421 38.0107 235.549 37.3387 235.485 36.5067C235.421 35.6107 235.677 34.8427 236.253 34.2027C235.613 34.3307 234.685 34.4587 233.469 34.5867C232.317 34.7147 231.197 34.7787 230.109 34.7787C229.597 34.7787 229.117 34.7787 228.669 34.7787C228.221 34.7147 227.837 34.6507 227.517 34.5867C225.981 34.2027 224.445 34.0107 222.909 34.0107C221.949 34.0107 220.669 34.0427 219.069 34.1067C217.533 34.1067 215.901 34.1067 214.173 34.1067C212.509 34.1067 211.005 34.1067 209.661 34.1067C208.317 34.1067 207.389 34.1067 206.877 34.1067C206.749 34.0427 206.365 34.0107 205.725 34.0107C205.085 34.0107 204.349 34.0427 203.517 34.1067C202.749 34.1707 202.269 34.1707 202.077 34.1067C202.077 35.1307 202.397 36.1227 203.037 37.0827C203.741 38.0427 204.221 38.9707 204.477 39.8667C204.669 40.6347 204.925 41.3707 205.245 42.0747C205.565 42.7147 205.853 43.3867 206.109 44.0907C206.301 44.7307 206.557 45.2747 206.877 45.7227C207.261 46.1067 207.485 46.6507 207.549 47.3547C207.549 47.8027 207.773 48.5387 208.221 49.5627C208.733 50.5867 209.245 51.6427 209.757 52.7307C210.333 53.7547 210.717 54.4907 210.909 54.9387C211.165 55.3867 211.645 56.4107 212.349 58.0107C213.053 59.5467 213.821 61.3067 214.653 63.2907C215.549 65.2107 216.381 67.0347 217.149 68.7627C217.917 70.4267 218.493 71.6747 218.877 72.5067ZM220.221 51.0027C218.109 51.0027 216.957 50.9067 216.765 50.7147C216.445 50.3307 216.189 49.9147 215.997 49.4667C215.805 48.9547 215.613 48.4747 215.421 48.0267C215.293 47.7067 215.517 47.2587 216.093 46.6827C216.669 46.1067 217.181 45.7867 217.629 45.7227C218.013 45.6587 218.333 45.5307 218.589 45.3387C218.845 45.0827 219.261 45.0507 219.837 45.2427C220.541 45.5627 221.053 45.9787 221.373 46.4907C221.757 47.0027 222.077 47.5467 222.333 48.1227C222.461 48.3787 222.205 48.9227 221.565 49.7547C220.989 50.5867 220.541 51.0027 220.221 51.0027ZM219.261 48.8907C219.389 48.8907 219.549 48.7627 219.741 48.5067C219.933 48.2507 219.997 48.0907 219.933 48.0267C219.805 47.8347 219.677 47.6747 219.549 47.5467C219.485 47.3547 219.357 47.2267 219.165 47.1627C218.973 47.0347 218.845 47.0347 218.781 47.1627C218.717 47.2267 218.621 47.2587 218.493 47.2587C218.365 47.3227 218.205 47.4187 218.013 47.5467C217.821 47.6747 217.757 47.8027 217.821 47.9307C217.949 48.1867 218.109 48.4427 218.301 48.6987C218.365 48.8267 218.685 48.8907 219.261 48.8907Z" fill="#E6DDB8"/>
<path d="M151.166 75.0027C150.846 74.8107 150.43 74.7147 149.918 74.7147C149.47 74.7147 148.99 74.7147 148.478 74.7147C148.222 74.6507 147.486 74.6187 146.27 74.6187C145.118 74.6187 143.934 74.6187 142.718 74.6187C141.566 74.6187 140.83 74.6187 140.51 74.6187C139.294 74.6187 138.622 73.9467 138.494 72.6027V31.5147C140.99 31.5147 143.742 31.5147 146.75 31.5147C149.822 31.4507 152.958 31.4187 156.158 31.4187C159.358 31.4187 162.398 31.4507 165.278 31.5147C168.222 31.5147 170.782 31.5147 172.958 31.5147C173.278 31.5147 173.566 31.5787 173.822 31.7067C174.142 31.8347 174.302 32.0587 174.302 32.3787V72.4107C174.302 72.6667 174.27 72.9547 174.206 73.2747C174.206 73.5307 174.142 73.7227 174.014 73.8507C173.566 74.1067 173.118 74.3627 172.67 74.6187C172.286 74.8107 171.87 74.9067 171.422 74.9067C170.334 74.9067 169.342 74.9707 168.446 75.0987C167.55 75.2267 166.654 74.9707 165.758 74.3307C165.31 74.9707 164.894 75.0987 164.51 74.7147C164.126 74.3947 163.71 74.2987 163.262 74.4267C163.07 74.4907 162.526 74.5547 161.63 74.6187C160.798 74.6187 159.806 74.6187 158.654 74.6187C157.566 74.6827 156.542 74.6827 155.582 74.6187C154.686 74.6187 154.046 74.6187 153.662 74.6187C153.214 74.5547 152.798 74.6827 152.414 75.0027C152.094 75.3227 151.678 75.3227 151.166 75.0027ZM158.558 72.2187C159.07 72.2187 159.998 72.1867 161.342 72.1227C162.686 71.9947 164.222 71.8987 165.95 71.8347C167.742 71.7067 169.438 71.6427 171.038 71.6427C171.166 71.3867 171.23 70.7147 171.23 69.6267C171.23 68.5387 171.198 67.4187 171.134 66.2667C171.07 65.1147 171.038 64.4107 171.038 64.1547V51.9627C171.23 49.4027 171.358 47.5147 171.422 46.2987C171.486 45.0187 171.486 43.9947 171.422 43.2267C171.422 42.3947 171.39 41.4027 171.326 40.2507C171.262 39.0347 171.23 37.2427 171.23 34.8747C171.038 34.8747 170.462 34.8427 169.502 34.7787C168.606 34.6507 167.806 34.5547 167.102 34.4907C166.91 34.4907 166.11 34.4907 164.702 34.4907C163.358 34.4907 161.79 34.5227 159.998 34.5867C158.27 34.6507 156.702 34.7147 155.294 34.7787C153.95 34.7787 153.15 34.7787 152.894 34.7787C152.51 34.2027 152.126 34.1067 151.742 34.4907C151.358 34.8107 150.814 34.9067 150.11 34.7787C149.662 34.2667 149.214 34.0427 148.766 34.1067C148.318 34.1067 147.838 34.1067 147.326 34.1067C146.622 34.1067 145.63 34.1387 144.35 34.2027C143.07 34.2667 142.078 34.3627 141.374 34.4907C141.118 35.1307 140.958 35.7387 140.894 36.3147C140.83 36.8267 140.99 37.3067 141.374 37.7547C141.502 37.8187 141.598 37.9787 141.662 38.2347C141.726 38.4907 141.694 38.6507 141.566 38.7147V44.6667C141.758 44.9867 141.79 45.2427 141.662 45.4347C141.022 46.0747 140.958 46.8747 141.47 47.8347C141.598 48.0907 141.694 48.3787 141.758 48.6987C141.822 49.0187 141.854 49.3387 141.854 49.6587C141.854 50.3627 141.63 51.0347 141.182 51.6747C140.862 52.1227 140.83 52.4747 141.086 52.7307C141.47 53.2427 141.662 53.9787 141.662 54.9387C141.662 55.6427 141.662 56.7947 141.662 58.3947C141.662 59.9307 141.63 61.4667 141.566 63.0027C141.566 64.5387 141.566 65.6587 141.566 66.3627C141.566 66.8107 141.534 67.2907 141.47 67.8027C141.47 68.3147 141.406 69.2427 141.278 70.5867C141.278 71.3547 141.502 71.7387 141.95 71.7387C142.718 71.7387 143.838 71.7387 145.31 71.7387C146.782 71.7387 148.19 71.7707 149.534 71.8347C150.878 71.8347 151.646 71.9307 151.838 72.1227C152.094 72.3147 152.35 72.2827 152.606 72.0267C152.926 71.7067 153.214 71.6107 153.47 71.7387C153.726 71.8667 153.982 71.9947 154.238 72.1227C154.494 72.1867 154.782 72.1227 155.102 71.9307C155.486 71.6747 155.742 71.6107 155.87 71.7387C156.318 72.0587 156.766 72.2187 157.214 72.2187C157.662 72.2187 158.11 72.2187 158.558 72.2187ZM157.79 56.0907C157.15 56.7307 156.35 56.7947 155.39 56.2827C154.494 55.7707 153.822 55.2267 153.374 54.6507C152.99 54.1387 152.798 53.6267 152.798 53.1147C152.798 52.6027 152.958 52.0587 153.278 51.4827C153.662 50.8427 154.078 50.4907 154.526 50.4267C155.23 50.2987 156.062 50.2987 157.022 50.4267C158.046 50.4907 158.558 51.0027 158.558 51.9627C158.558 52.6667 158.782 53.1787 159.23 53.4987C159.678 53.8187 159.646 54.2347 159.134 54.7467L157.79 56.0907ZM156.542 54.1707L156.926 53.7867C157.054 53.6587 157.054 53.5627 156.926 53.4987C156.798 53.4347 156.734 53.2747 156.734 53.0187C156.734 52.7627 156.606 52.6347 156.35 52.6347C156.094 52.5707 155.87 52.5707 155.678 52.6347C155.358 52.7627 155.198 53.0187 155.198 53.4027C155.198 53.5947 155.262 53.7227 155.39 53.7867C155.518 53.9147 155.678 54.0747 155.87 54.2667C156.126 54.3947 156.35 54.3627 156.542 54.1707Z" fill="#E6DDB8"/>
<path d="M128.334 93.8187C128.078 93.8187 126.894 93.7867 124.782 93.7227C122.67 93.7227 120.142 93.7227 117.198 93.7227C114.318 93.7227 111.47 93.7227 108.654 93.7227C107.95 93.7227 107.502 93.6587 107.31 93.5307C107.118 93.4027 106.83 92.9227 106.446 92.0907C106.638 90.5547 106.734 89.4347 106.734 88.7307C106.734 87.9627 106.638 87.4507 106.446 87.1947C106.19 86.5547 106.03 85.8187 105.966 84.9867C105.966 84.2187 105.998 83.7707 106.062 83.6427C106.382 83.1307 106.574 82.2667 106.638 81.0507C106.766 79.8987 106.83 79.0667 106.83 78.5547C106.83 78.0427 107.15 77.6587 107.79 77.4027C108.43 77.1467 108.91 77.1787 109.23 77.4987C110.382 78.5227 111.342 79.3547 112.11 79.9947C112.878 80.6347 113.87 81.2107 115.086 81.7227C116.11 82.1067 116.75 82.3947 117.006 82.5867C117.326 82.7787 117.486 82.9067 117.486 82.9707C117.486 83.0347 117.582 83.1307 117.774 83.2587C118.222 83.5147 118.798 83.7387 119.502 83.9307C120.206 84.1867 120.686 84.5707 120.942 85.0827C121.646 86.2987 122.318 87.0347 122.958 87.2907C123.598 87.6107 124.462 88.2187 125.55 89.1147C125.87 89.3707 126.158 89.6267 126.414 89.8827C126.734 90.1387 126.894 90.1387 126.894 89.8827C126.894 79.5787 126.894 71.0987 126.894 64.4427C126.894 57.7867 126.894 52.5387 126.894 48.6987C126.894 44.7947 126.894 41.9147 126.894 40.0587C126.894 38.2027 126.862 36.9867 126.798 36.4107C126.798 35.7707 126.798 35.3867 126.798 35.2587C126.798 35.1307 126.702 35.0027 126.51 34.8747C126.382 34.6827 126.254 34.5867 126.126 34.5867C124.014 34.5227 121.902 34.4907 119.79 34.4907C117.678 34.4267 115.598 34.3947 113.55 34.3947C112.526 34.3947 111.63 34.1387 110.862 33.6267C110.478 33.3707 110.382 32.9227 110.574 32.2827C110.702 31.8347 111.598 31.5787 113.262 31.5147C114.926 31.4507 117.134 31.4187 119.886 31.4187C120.206 31.4827 120.654 31.5787 121.23 31.7067C121.87 31.8347 122.318 31.8667 122.574 31.8027C123.47 31.5467 124.142 31.4187 124.59 31.4187C125.038 31.4187 125.678 31.4187 126.51 31.4187C127.854 31.4187 128.814 31.7067 129.39 32.2827C129.71 32.6027 129.902 33.0827 129.966 33.7227C130.094 34.2987 130.158 35.0347 130.158 35.9307C130.158 43.5467 130.158 49.8827 130.158 54.9387C130.158 59.9307 130.158 63.9307 130.158 66.9387C130.222 69.9467 130.254 72.2187 130.254 73.7547C130.318 75.2907 130.382 76.3147 130.446 76.8267C130.574 77.4027 130.702 77.7547 130.83 77.8827C130.318 78.7147 130.062 79.7387 130.062 80.9547C130.126 84.5387 130.158 87.0987 130.158 88.6347C130.158 90.1707 130.158 91.2907 130.158 91.9947C130.158 92.4427 129.966 92.8587 129.582 93.2427C129.262 93.6267 128.846 93.8187 128.334 93.8187ZM123.054 90.5547C121.71 89.5307 120.11 88.6027 118.254 87.7707C116.462 86.9387 114.926 85.9467 113.646 84.7947C112.622 83.8987 111.726 83.2267 110.958 82.7787C110.19 82.3307 109.774 82.1707 109.71 82.2987L109.614 87.7707C109.614 88.2187 109.646 88.6667 109.71 89.1147C109.774 89.5627 109.934 90.0107 110.19 90.4587C110.638 90.4587 111.47 90.4587 112.686 90.4587C113.902 90.4587 115.246 90.4587 116.718 90.4587C118.19 90.4587 119.502 90.4587 120.654 90.4587C121.87 90.5227 122.67 90.5547 123.054 90.5547ZM119.694 28.3467C118.798 28.3467 117.966 28.1547 117.198 27.7707C116.494 27.3867 116.046 26.9387 115.854 26.4267C115.726 26.0427 115.726 25.4027 115.854 24.5067C115.982 23.5467 116.494 22.8427 117.39 22.3947C117.966 21.9467 118.574 21.6267 119.214 21.4347C119.854 21.1787 120.398 21.2107 120.846 21.5307C121.166 21.7867 121.55 22.0427 121.998 22.2987C122.446 22.4907 122.862 22.6827 123.246 22.8747C124.014 23.4507 124.206 24.0907 123.822 24.7947C123.374 25.6267 122.862 26.4267 122.286 27.1947C121.774 27.9627 120.91 28.3467 119.694 28.3467Z" fill="#E6DDB8"/>
<path d="M78.9783 75.0027C78.6583 74.8107 78.2423 74.7147 77.7303 74.7147C77.2823 74.7147 76.8023 74.7147 76.2903 74.7147C76.0343 74.6507 75.2983 74.6187 74.0823 74.6187C72.9303 74.6187 71.7463 74.6187 70.5303 74.6187C69.3783 74.6187 68.6423 74.6187 68.3223 74.6187C67.1063 74.6187 66.4343 73.9467 66.3063 72.6027V31.5147C68.8023 31.5147 71.5543 31.5147 74.5623 31.5147C77.6343 31.4507 80.7703 31.4187 83.9703 31.4187C87.1703 31.4187 90.2103 31.4507 93.0903 31.5147C96.0343 31.5147 98.5943 31.5147 100.77 31.5147C101.09 31.5147 101.378 31.5787 101.634 31.7067C101.954 31.8347 102.114 32.0587 102.114 32.3787V72.4107C102.114 72.6667 102.082 72.9547 102.018 73.2747C102.018 73.5307 101.954 73.7227 101.826 73.8507C101.378 74.1067 100.93 74.3627 100.482 74.6187C100.098 74.8107 99.6823 74.9067 99.2343 74.9067C98.1463 74.9067 97.1543 74.9707 96.2583 75.0987C95.3623 75.2267 94.4663 74.9707 93.5703 74.3307C93.1223 74.9707 92.7063 75.0987 92.3223 74.7147C91.9383 74.3947 91.5223 74.2987 91.0743 74.4267C90.8823 74.4907 90.3383 74.5547 89.4423 74.6187C88.6103 74.6187 87.6183 74.6187 86.4663 74.6187C85.3783 74.6827 84.3543 74.6827 83.3943 74.6187C82.4983 74.6187 81.8583 74.6187 81.4743 74.6187C81.0263 74.5547 80.6103 74.6827 80.2263 75.0027C79.9063 75.3227 79.4903 75.3227 78.9783 75.0027ZM86.3703 72.2187C86.8823 72.2187 87.8103 72.1867 89.1543 72.1227C90.4983 71.9947 92.0343 71.8987 93.7623 71.8347C95.5543 71.7067 97.2503 71.6427 98.8503 71.6427C98.9783 71.3867 99.0423 70.7147 99.0423 69.6267C99.0423 68.5387 99.0103 67.4187 98.9463 66.2667C98.8823 65.1147 98.8503 64.4107 98.8503 64.1547V51.9627C99.0423 49.4027 99.1703 47.5147 99.2343 46.2987C99.2983 45.0187 99.2983 43.9947 99.2343 43.2267C99.2343 42.3947 99.2023 41.4027 99.1383 40.2507C99.0743 39.0347 99.0423 37.2427 99.0423 34.8747C98.8503 34.8747 98.2743 34.8427 97.3143 34.7787C96.4183 34.6507 95.6183 34.5547 94.9143 34.4907C94.7223 34.4907 93.9223 34.4907 92.5143 34.4907C91.1703 34.4907 89.6023 34.5227 87.8103 34.5867C86.0823 34.6507 84.5143 34.7147 83.1063 34.7787C81.7623 34.7787 80.9623 34.7787 80.7063 34.7787C80.3223 34.2027 79.9383 34.1067 79.5543 34.4907C79.1703 34.8107 78.6263 34.9067 77.9223 34.7787C77.4743 34.2667 77.0263 34.0427 76.5783 34.1067C76.1303 34.1067 75.6503 34.1067 75.1383 34.1067C74.4343 34.1067 73.4423 34.1387 72.1623 34.2027C70.8823 34.2667 69.8903 34.3627 69.1863 34.4907C68.9303 35.1307 68.7703 35.7387 68.7063 36.3147C68.6423 36.8267 68.8023 37.3067 69.1863 37.7547C69.3143 37.8187 69.4103 37.9787 69.4743 38.2347C69.5383 38.4907 69.5063 38.6507 69.3783 38.7147V44.6667C69.5703 44.9867 69.6023 45.2427 69.4743 45.4347C68.8343 46.0747 68.7703 46.8747 69.2823 47.8347C69.4103 48.0907 69.5063 48.3787 69.5703 48.6987C69.6343 49.0187 69.6663 49.3387 69.6663 49.6587C69.6663 50.3627 69.4423 51.0347 68.9943 51.6747C68.6743 52.1227 68.6423 52.4747 68.8983 52.7307C69.2823 53.2427 69.4743 53.9787 69.4743 54.9387C69.4743 55.6427 69.4743 56.7947 69.4743 58.3947C69.4743 59.9307 69.4423 61.4667 69.3783 63.0027C69.3783 64.5387 69.3783 65.6587 69.3783 66.3627C69.3783 66.8107 69.3463 67.2907 69.2823 67.8027C69.2823 68.3147 69.2183 69.2427 69.0903 70.5867C69.0903 71.3547 69.3143 71.7387 69.7623 71.7387C70.5303 71.7387 71.6503 71.7387 73.1223 71.7387C74.5943 71.7387 76.0023 71.7707 77.3463 71.8347C78.6903 71.8347 79.4583 71.9307 79.6503 72.1227C79.9063 72.3147 80.1623 72.2827 80.4183 72.0267C80.7383 71.7067 81.0263 71.6107 81.2823 71.7387C81.5383 71.8667 81.7943 71.9947 82.0503 72.1227C82.3063 72.1867 82.5943 72.1227 82.9143 71.9307C83.2983 71.6747 83.5543 71.6107 83.6823 71.7387C84.1303 72.0587 84.5783 72.2187 85.0263 72.2187C85.4743 72.2187 85.9223 72.2187 86.3703 72.2187ZM85.6023 56.0907C84.9623 56.7307 84.1623 56.7947 83.2023 56.2827C82.3063 55.7707 81.6343 55.2267 81.1863 54.6507C80.8023 54.1387 80.6103 53.6267 80.6103 53.1147C80.6103 52.6027 80.7703 52.0587 81.0903 51.4827C81.4743 50.8427 81.8903 50.4907 82.3383 50.4267C83.0423 50.2987 83.8743 50.2987 84.8343 50.4267C85.8583 50.4907 86.3703 51.0027 86.3703 51.9627C86.3703 52.6667 86.5943 53.1787 87.0423 53.4987C87.4903 53.8187 87.4583 54.2347 86.9463 54.7467L85.6023 56.0907ZM84.3543 54.1707L84.7383 53.7867C84.8663 53.6587 84.8663 53.5627 84.7383 53.4987C84.6103 53.4347 84.5463 53.2747 84.5463 53.0187C84.5463 52.7627 84.4183 52.6347 84.1623 52.6347C83.9063 52.5707 83.6823 52.5707 83.4903 52.6347C83.1703 52.7627 83.0103 53.0187 83.0103 53.4027C83.0103 53.5947 83.0743 53.7227 83.2023 53.7867C83.3303 53.9147 83.4903 54.0747 83.6823 54.2667C83.9383 54.3947 84.1623 54.3627 84.3543 54.1707Z" fill="#E6DDB8"/>
<path d="M53.3741 74.5227C51.0701 74.5227 48.7661 74.5227 46.4621 74.5227C44.2221 74.5227 41.9501 74.4907 39.6461 74.4267C39.3261 74.4267 38.9101 74.3307 38.3981 74.1387C37.9501 73.8827 37.7261 73.5947 37.7261 73.2747C37.7261 73.1467 37.7901 72.9547 37.9181 72.6987C38.1101 72.4427 38.2701 72.3467 38.3981 72.4107C39.1021 72.6667 39.7741 72.6667 40.4141 72.4107C41.0541 72.1547 41.7581 72.0267 42.5261 72.0267H52.6061C52.9261 72.0267 53.2461 72.0267 53.5661 72.0267C53.9501 72.0267 54.3021 71.9947 54.6221 71.9307C54.7501 71.9307 54.8781 71.8347 55.0061 71.6427C55.1981 71.4507 55.2941 71.2907 55.2941 71.1627C55.2941 70.9707 55.2941 70.4267 55.2941 69.5307C55.2941 68.5707 55.2941 67.5147 55.2941 66.3627C55.2941 65.2107 55.2941 64.2187 55.2941 63.3867C55.2941 62.4907 55.2621 62.0107 55.1981 61.9467C54.8141 61.4987 54.6221 61.0507 54.6221 60.6027C54.6861 60.1547 54.7181 59.7067 54.7181 59.2587V48.2187C54.7181 47.7067 54.7181 47.2587 54.7181 46.8747C54.7181 46.4267 54.8781 45.9787 55.1981 45.5307L55.2941 44.3787L56.0621 14.3307C56.0621 13.3067 55.7741 13.2107 55.1981 14.0427C54.8781 14.4267 54.4301 15.0027 53.8541 15.7707C53.3421 16.4747 52.9901 17.0507 52.7981 17.4987C52.7341 17.6907 52.2541 18.3947 51.3581 19.6107C50.5261 20.7627 49.4381 22.2347 48.0941 24.0267C46.8141 25.8187 45.4701 27.7707 44.0621 29.8827C42.2701 32.5067 40.4781 35.1307 38.6861 37.7547C36.9581 40.3147 35.4861 42.4907 34.2701 44.2827C33.1181 46.0107 32.4141 47.0027 32.1581 47.2587C31.5181 47.8987 31.3901 48.6347 31.7741 49.4667C32.2861 50.2347 32.7661 51.0987 33.2141 52.0587C33.7261 52.9547 34.3021 53.7547 34.9421 54.4587C35.8381 55.4827 36.6701 56.6027 37.4381 57.8187C38.2701 59.0347 39.0381 60.2827 39.7421 61.5627C40.0621 62.0107 39.9981 62.4907 39.5501 63.0027C39.1661 63.5147 38.7181 63.7707 38.2061 63.7707H27.3581C27.1661 63.7707 26.9741 63.7387 26.7821 63.6747C26.5901 63.5467 26.3981 63.4507 26.2061 63.3867C25.7581 63.1307 25.2141 63.0027 24.5741 63.0027C23.9341 63.0027 23.3581 63.1627 22.8461 63.4827C21.7581 64.1227 20.7661 64.0907 19.8701 63.3867C19.6141 63.1947 19.2301 63.0667 18.7181 63.0027C18.2701 62.9387 18.1101 62.6187 18.2381 62.0427C18.3021 61.7227 18.6861 61.3387 19.3901 60.8907C20.0941 60.4427 20.4461 60.1547 20.4461 60.0267C20.7661 58.7467 21.3741 57.6587 22.2701 56.7627C23.1661 55.8667 23.9341 54.9067 24.5741 53.8827C25.0861 52.9867 25.5341 52.0907 25.9181 51.1947C26.3021 50.2987 26.9101 49.5307 27.7421 48.8907C27.8701 48.7627 27.8701 48.5707 27.7421 48.3147C27.6141 47.9947 27.4861 47.7067 27.3581 47.4507C26.9101 46.4907 26.3981 45.5627 25.8221 44.6667C25.2461 43.7707 24.6701 42.9067 24.0941 42.0747C23.8381 41.6267 23.2941 40.8267 22.4621 39.6747C21.6301 38.4587 20.7021 37.1467 19.6781 35.7387C18.6541 34.2667 17.7581 32.9867 16.9901 31.8987C16.2221 30.7467 15.7421 29.9787 15.5501 29.5947C15.2301 28.9547 14.8141 28.3787 14.3021 27.8667C13.7901 27.2907 13.3741 26.6827 13.0541 26.0427C12.7341 25.4027 12.3501 24.8267 11.9021 24.3147C11.4541 23.7387 11.0701 23.0987 10.7501 22.3947C10.5581 21.9467 10.2381 21.5627 9.79008 21.2427C9.34207 20.8587 8.95807 20.4427 8.63807 19.9947C7.93407 19.0347 7.48607 18.3627 7.29407 17.9787C7.10207 17.5947 6.97407 17.3067 6.91007 17.1147C6.91007 16.9227 6.81407 16.6667 6.62207 16.3467C6.43007 15.9627 5.95007 15.2907 5.18207 14.3307C5.11807 14.2027 4.95807 14.1387 4.70207 14.1387C4.51007 14.0747 4.41407 14.2027 4.41407 14.5227C4.41407 15.2267 4.41407 15.7707 4.41407 16.1547C4.47807 16.5387 4.63807 16.8907 4.89407 17.2107C5.02207 17.2747 5.02207 17.4987 4.89407 17.8827C4.63807 18.5867 4.44607 19.5147 4.31807 20.6667C4.25407 21.8187 4.38207 22.6827 4.70207 23.2587C4.95807 23.7067 5.08607 24.1547 5.08607 24.6027C5.15007 24.9867 5.18207 25.4347 5.18207 25.9467V43.5147C5.18207 43.9627 5.18207 44.4427 5.18207 44.9547C5.24607 45.4027 5.08607 45.8187 4.70207 46.2027C4.63807 46.2667 4.73407 46.8107 4.99007 47.8347C5.24607 48.7947 5.21407 49.4667 4.89407 49.8507C4.63807 50.2347 4.47807 50.6187 4.41407 51.0027C4.41407 51.3867 4.41407 51.7707 4.41407 52.1547V71.2587C4.41407 71.5147 4.54207 71.7387 4.79807 71.9307C5.05407 72.0587 5.31007 72.0267 5.56607 71.8347C6.46207 71.3227 7.45407 71.0987 8.54207 71.1627C9.63007 71.1627 10.5901 71.2267 11.4221 71.3547C11.6141 71.7387 11.8381 71.8667 12.0941 71.7387C12.4141 71.6107 12.7021 71.4827 12.9581 71.3547C13.2781 71.2267 13.5341 71.3867 13.7261 71.8347C14.0461 71.8347 14.5581 71.8667 15.2621 71.9307C15.9661 71.9307 16.6701 71.9307 17.3741 71.9307C18.1421 71.9307 18.6541 71.9627 18.9101 72.0267C19.3581 72.0907 19.8061 72.2507 20.2541 72.5067C20.7021 72.6987 20.7021 73.0187 20.2541 73.4667C20.0621 73.6587 19.8381 73.8827 19.5821 74.1387C19.3901 74.3307 19.1981 74.4267 19.0061 74.4267C18.7501 74.4267 18.1101 74.4267 17.0861 74.4267C16.1261 74.3627 15.1341 74.2987 14.1101 74.2347C13.1501 74.1067 12.5421 74.0107 12.2861 73.9467C12.0301 73.8187 11.7421 73.8827 11.4221 74.1387C11.1661 74.3307 10.8781 74.4267 10.5581 74.4267H9.79008C8.95808 74.4267 8.06207 74.4907 7.10207 74.6187C6.20607 74.6827 5.31007 74.4587 4.41407 73.9467C3.96607 73.9467 3.58207 74.0747 3.26207 74.3307C2.94207 74.5867 2.59007 74.5547 2.20607 74.2347C2.01407 74.0427 1.79007 73.8507 1.53407 73.6587C1.34207 73.4667 1.24607 73.2427 1.24607 72.9867C1.24607 72.7307 1.24607 72.0907 1.24607 71.0667C1.24607 70.0427 1.27807 69.0187 1.34207 67.9947C1.40607 66.9707 1.50207 66.3947 1.63007 66.2667C1.88607 65.9467 1.85407 65.7227 1.53407 65.5947C1.27807 65.4027 1.15007 65.1787 1.15007 64.9227V61.9467C1.15007 61.6907 1.31007 61.4987 1.63007 61.3707C1.95007 61.1787 1.95007 60.9547 1.63007 60.6987C1.37407 60.3147 1.37407 59.9947 1.63007 59.7387C1.88607 59.4827 1.88607 59.2587 1.63007 59.0667C0.990074 58.2987 0.926074 57.5627 1.43807 56.8587C1.63007 56.5387 1.75807 56.2187 1.82207 55.8987C1.88607 55.5787 1.95007 55.2587 2.01407 54.9387V54.7467C2.01407 54.2347 1.85407 53.7867 1.53407 53.4027C1.27807 53.0187 1.15007 52.6027 1.15007 52.1547C1.15007 51.6427 1.27807 51.0347 1.53407 50.3307C1.85407 49.6267 2.01407 49.0507 2.01407 48.6027V23.2587C2.01407 23.0027 2.01407 22.7147 2.01407 22.3947C2.07807 22.0747 2.04607 21.8507 1.91807 21.7227C1.59807 21.3387 1.47007 20.9867 1.53407 20.6667C1.59807 20.3467 1.72607 20.0267 1.91807 19.7067C2.11007 19.3867 2.01407 19.0667 1.63007 18.7467C1.24607 18.4267 1.27807 18.0427 1.72607 17.5947C1.91807 17.3387 1.98207 16.9867 1.91807 16.5387C1.91807 16.0907 1.95007 15.6747 2.01407 15.2907C2.01407 14.9707 1.95007 14.7147 1.82207 14.5227C1.75807 14.2667 1.66207 14.0107 1.53407 13.7547C1.27807 12.9867 1.15007 12.1547 1.15007 11.2587C1.21407 10.3627 1.27807 9.4987 1.34207 8.6667C1.34207 8.4747 1.47007 8.2827 1.72607 8.0907C1.98207 7.8347 2.20607 7.6427 2.39807 7.5147C2.71807 7.3227 2.97407 7.3227 3.16607 7.5147C3.29407 7.5787 3.45407 7.6747 3.64607 7.8027C3.83807 7.9307 3.96607 8.0907 4.03007 8.2827C5.11807 9.8827 6.33407 11.4507 7.67807 12.9867C9.02207 14.4587 10.1101 16.2187 10.9421 18.2667C11.2621 18.8427 11.6781 19.3227 12.1901 19.7067C12.7661 20.0907 13.1821 20.6347 13.4381 21.3387C13.6301 21.9787 13.8861 22.5867 14.2061 23.1627C14.5901 23.7387 15.0381 24.2507 15.5501 24.6987C15.6141 25.4027 15.9341 25.9787 16.5101 26.4267C17.0861 26.8107 17.4061 27.3547 17.4701 28.0587C19.0061 29.6587 20.3501 31.3867 21.5021 33.2427C22.6541 35.0987 23.8701 36.9547 25.1501 38.8107C25.4701 39.2587 25.7901 39.7387 26.1101 40.2507C26.4941 40.7627 26.7821 41.2747 26.9741 41.7867C27.1661 42.4267 27.4861 43.0347 27.9341 43.6107C28.4461 44.1227 28.7341 44.7307 28.7981 45.4347C28.7981 45.6907 29.0221 45.9467 29.4701 46.2027C29.9181 46.4587 30.1421 46.4587 30.1421 46.2027C30.2701 45.3067 30.7181 44.5387 31.4861 43.8987C32.2541 43.2587 32.6701 42.5227 32.7341 41.6907C33.6301 40.9867 34.2381 40.1227 34.5581 39.0987C34.8781 38.0747 35.4221 37.1787 36.1901 36.4107C37.0861 34.5547 38.2381 32.8267 39.6461 31.2267C41.0541 29.5627 42.2701 27.7387 43.2941 25.7547C43.6141 25.1147 44.0621 24.6027 44.6381 24.2187C45.2781 23.7707 45.6621 23.1307 45.7901 22.2987C46.3661 21.8507 47.1021 20.9867 47.9981 19.7067C48.9581 18.3627 49.9501 16.8907 50.9741 15.2907C51.9981 13.6907 52.9261 12.2187 53.7581 10.8747C54.6541 9.4667 55.3261 8.4747 55.7741 7.8987C55.9021 7.7067 56.0621 7.5467 56.2541 7.4187C56.5101 7.2267 56.7661 7.2907 57.0221 7.6107C57.2781 7.8667 57.5981 8.0267 57.9821 8.0907C58.4301 8.0907 58.6541 8.4107 58.6541 9.0507C58.5901 11.7387 58.5581 14.4907 58.5581 17.3067C58.5581 20.0587 58.5581 22.7787 58.5581 25.4667C58.5581 25.9147 58.4621 26.2987 58.2701 26.6187C58.0781 26.8107 57.9181 27.4827 57.7901 28.6347C57.7261 29.7227 57.6621 31.0347 57.5981 32.5707C57.5981 34.1067 57.5981 35.6427 57.5981 37.1787C57.6621 38.7147 57.7581 40.0267 57.8861 41.1147C58.0141 42.2027 58.1741 42.8427 58.3661 43.0347C58.6221 43.2907 58.5581 43.6747 58.1741 44.1867C57.8541 44.6347 57.6941 45.1787 57.6941 45.8187C57.6941 52.1547 57.6941 57.0827 57.6941 60.6027C57.7581 64.1227 57.7901 66.7147 57.7901 68.3787C57.8541 69.9787 57.8861 71.0027 57.8861 71.4507C57.8861 71.8987 57.8861 72.1867 57.8861 72.3147C57.8861 73.0827 57.7261 73.7547 57.4061 74.3307C56.7661 74.3307 56.0941 74.3627 55.3901 74.4267C54.7501 74.4267 54.0781 74.4587 53.3741 74.5227ZM29.9501 25.6587C29.3101 25.6587 28.6701 25.4027 28.0301 24.8907C27.4541 24.3147 26.9101 23.8027 26.3981 23.3547C25.8861 22.5867 25.8861 21.8507 26.3981 21.1467C26.7821 20.6347 27.1661 20.2507 27.5501 19.9947C27.9981 19.7387 28.5421 19.6747 29.1821 19.8027C30.3981 19.8027 31.3261 20.0907 31.9661 20.6667C32.6701 21.1787 33.0221 21.8187 33.0221 22.5867C33.0221 23.0347 32.7981 23.6747 32.3501 24.5067C31.9021 25.2747 31.1021 25.6587 29.9501 25.6587ZM29.6621 23.5467C29.9821 23.5467 30.1741 23.4187 30.2381 23.1627C30.3021 22.9067 30.3341 22.7467 30.3341 22.6827C30.3341 22.2347 30.0141 22.0107 29.3741 22.0107C29.1821 21.9467 28.9581 22.0427 28.7021 22.2987C28.6381 22.5547 28.6381 22.7467 28.7021 22.8747C28.9581 23.3227 29.2781 23.5467 29.6621 23.5467ZM34.8461 61.2747C36.1901 61.2747 36.5421 60.9227 35.9021 60.2187C34.8141 57.8507 33.5981 55.9627 32.2541 54.5547C30.9741 53.0827 30.2701 52.0267 30.1421 51.3867C29.9501 50.6187 29.6301 50.4587 29.1821 50.9067C27.9661 52.0587 26.8141 53.5947 25.7261 55.5147C24.6381 57.3707 23.7421 59.0987 23.0381 60.6987C23.0381 60.7627 23.0701 60.8587 23.1341 60.9867C23.1981 61.1147 23.2621 61.1787 23.3261 61.1787C24.3501 61.1787 25.5661 61.2107 26.9741 61.2747C28.3821 61.2747 29.7901 61.2747 31.1981 61.2747C32.6701 61.2747 33.8861 61.2747 34.8461 61.2747Z" fill="#E6DDB8"/>
  
    </g>
    <mask id="text-mask">
      <path d="M22.2569 73.2622L3.32778 72.8306L3.32776 9.90248L39.1884 62.4641H20.4504L57.1324 9.90248L56.3384 73.2622H39.1884L33.6305 24.3529H26.9733V19.6122L32.6778 19.2715V22.6062L67.9306 33.5631V73.2622H100.325V33.5631L67.9306 32.134L82.0307 53.8934L83.8654 56.1684L86.4094 54.3827L85.5043 51.6429L83.1804 51.276L81.2724 53.0617L88.8067 37.5283L111.988 32.9679L128.182 33.2828V92.0753H108.164L108.389 79.4801L126.292 91.5805L117.026 27.615L117.746 23.5665L119.815 22.7568L122.559 24.0613L121.029 26.6254H119.185L139.832 32.9679L140.147 73.1825H172.445L172.67 33.2828L139.832 32.0683L154.227 53.4351L156.161 55.6842L158.23 53.4351L156.161 51.096L153.102 52.9403L217.628 73.1825L199.94 32.6971H237.939L238.342 34.1767L210.383 95.0598L218.899 49.9909L217.053 49.4171L216.554 47.6958L217.677 46.3736L219.847 45.9744L221.219 47.6958V49.4171L219.423 50.2155L253.798 54.573L249.106 80.5889H308.068L306.789 43.9108H279.6L277.788 66.6214L299.325 67.3677V62.1432L287.17 51.0545V49.4171L291.256 48.6708L295.352 48.9245L301.476 49.613L301.657 73.2421H265.815L265.996 9.09578H300.969V25.0055L285.494 33.051L283.175 35.1167L281.29 34.7181L281 32.5436L282.703 31.2027L284.262 31.5289L285.095 32.0725L312.579 32.9154L344.961 33.1991V72.6387L312.579 73.2421L311.87 32.4188L328.304 51.4916L330.333 52.8106L330.751 54.3959L328.646 55.8924L326.16 54.1296L325.818 52.3414L327.213 51.0985L364.952 70.993V8.978H378.017L355.662 33.1991H378.54L353.629 73.2576H379.004L398.457 32.7272V72.9673H383.798L411.348 73.2576L385.624 32.7272L413.362 32.9897L399.891 27.0571L397.462 26.8892L396.04 24.796L396.835 22.7476L398.457 22.1879L400.26 22.7476L401.637 23.9453L401.167 25.5124L399.891 26.0497L420.864 32.9897V73.2576L453.307 72.9759L453.49 32.9897L420.373 32.4052L435.145 52.2051L434.751 54.1259L436.418 55.4219H438.5L439.264 54.1259L438.5 51.7654L437.042 51.2563L435.654 51.4877H434.867" stroke="white" stroke-width="20" stroke-dasharray="2692" stroke-dashoffset="2692">

      <animate
        attributeName="stroke-dashoffset"
        dur="3s"
        from="2692"
        to="0"
        fill="freeze"
      />
      </path>
    </mask>


</svg>
